<svg width="32" height="32" viewBox="0 0 28 28" fill="none" xmlns="http://www.w3.org/2000/svg">
<path d="M2.01133 18.1331L2.01761 18.1302L2.01133 18.1331ZM2.01133 18.1331L2.0032 18.1368M2.01133 18.1331L2.0137 18.1244L2.01417 18.1226L2.01368 18.1244L2.0032 18.1368M2.01133 18.1331L2.0032 18.1368M2.01133 18.1331L2.0032 18.1368M12.6685 18.4391H11.1685V17.7471C11.6783 17.9532 12.1789 18.184 12.6685 18.4391ZM12.6685 18.4391L13.3615 17.1087C13.1327 16.9895 12.9016 16.8752 12.6685 16.7658V18.4391ZM4.67912 16.4877H4.70024C4.6932 16.4877 4.68616 16.4877 4.67912 16.4877ZM26.0135 23.3176L26.0166 23.3125L26.0135 23.3176ZM1.97633 23.3137L1.9592 23.3012L1.97633 23.3137ZM26.0014 17.9969L25.997 17.9917L26.0014 17.9969Z" fill="white" stroke="white" stroke-width="3"/>
</svg>
