<svg width="25" height="24" viewBox="0 0 25 24" fill="none" xmlns="http://www.w3.org/2000/svg">
<path d="M19.1072 8.37242C18.8583 8.13389 18.5217 8 18.1709 8C17.82 8 17.4834 8.13389 17.2346 8.37242L12.4668 12.9061L7.76542 8.37242C7.51659 8.13389 7.17999 8 6.82913 8C6.47827 8 6.14167 8.13389 5.89284 8.37242C5.76836 8.49148 5.66956 8.63312 5.60214 8.78919C5.53471 8.94525 5.5 9.11265 5.5 9.28171C5.5 9.45078 5.53471 9.61818 5.60214 9.77424C5.66956 9.93031 5.76836 10.072 5.89284 10.191L11.5239 15.6212C11.6473 15.7412 11.7942 15.8365 11.9561 15.9015C12.1179 15.9665 12.2915 16 12.4668 16C12.6421 16 12.8157 15.9665 12.9775 15.9015C13.1394 15.8365 13.2863 15.7412 13.4097 15.6212L19.1072 10.191C19.2316 10.072 19.3304 9.93031 19.3979 9.77424C19.4653 9.61818 19.5 9.45078 19.5 9.28171C19.5 9.11265 19.4653 8.94525 19.3979 8.78919C19.3304 8.63312 19.2316 8.49148 19.1072 8.37242Z" fill="#FF7506"/>
</svg>
