<svg width="32" height="32" viewBox="0 0 32 32" fill="none" xmlns="http://www.w3.org/2000/svg">
<path fill-rule="evenodd" clip-rule="evenodd" d="M4.31501 16.0006C4.44454 16.2245 4.61626 16.5097 4.82899 16.8391C5.37538 17.6852 6.18454 18.8102 7.23506 19.9308C9.3577 22.1949 12.3254 24.2969 16 24.2969C19.6747 24.2969 22.6424 22.1949 24.765 19.9308C25.8155 18.8102 26.6247 17.6852 27.1711 16.8391C27.3838 16.5097 27.5556 16.2245 27.6851 16.0006C27.5556 15.7768 27.3838 15.4915 27.1711 15.1622C26.6247 14.3161 25.8155 13.1911 24.765 12.0705C22.6424 9.80635 19.6747 7.70435 16 7.70435C12.3254 7.70435 9.3577 9.80635 7.23506 12.0705C6.18454 13.1911 5.37538 14.3161 4.82899 15.1622C4.61626 15.4915 4.44454 15.7768 4.31501 16.0006ZM29.0371 16.0006C30.0971 15.4706 30.0969 15.4702 30.0967 15.4698L30.0948 15.466L30.0907 15.4579L30.0773 15.4316C30.066 15.4096 30.05 15.3788 30.0294 15.3398C29.9881 15.2619 29.9283 15.1511 29.8501 15.0122C29.6939 14.7344 29.4639 14.3432 29.1623 13.8762C28.5606 12.9444 27.666 11.6991 26.4943 10.4493C24.1725 7.97273 20.6217 5.33398 16 5.33398C11.3784 5.33398 7.82758 7.97273 5.50579 10.4493C4.33408 11.6991 3.43954 12.9444 2.83778 13.8762C2.53617 14.3432 2.30618 14.7344 2.14995 15.0122C2.07179 15.1511 2.01195 15.2619 1.97072 15.3398C1.95011 15.3788 1.93413 15.4096 1.92283 15.4316L1.90938 15.4579L1.90529 15.466L1.9039 15.4687C1.90368 15.4692 1.90296 15.4706 2.96302 16.0006L1.90296 15.4706C1.73612 15.8043 1.73612 16.197 1.90296 16.5307L2.96302 16.0006C1.90296 16.5307 1.90274 16.5302 1.90296 16.5307L1.90529 16.5353L1.90938 16.5434L1.92283 16.5697C1.93413 16.5917 1.95011 16.6225 1.97072 16.6615C2.01195 16.7394 2.07179 16.8502 2.14995 16.9891C2.30618 17.2668 2.53617 17.6581 2.83778 18.1251C3.43954 19.0569 4.33408 20.3022 5.50579 21.552C7.82758 24.0286 11.3784 26.6673 16 26.6673C20.6217 26.6673 24.1725 24.0286 26.4943 21.552C27.666 20.3022 28.5606 19.0569 29.1623 18.1251C29.4639 17.6581 29.6939 17.2668 29.8501 16.9891C29.9283 16.8502 29.9881 16.7394 30.0294 16.6615C30.05 16.6225 30.066 16.5917 30.0773 16.5697L30.0907 16.5434L30.0948 16.5353L30.0962 16.5326C30.0964 16.5321 30.0971 16.5307 29.0371 16.0006ZM29.0371 16.0006L30.0971 16.5307C30.264 16.197 30.2636 15.8034 30.0967 15.4698L29.0371 16.0006Z" fill="white"/>
<path fill-rule="evenodd" clip-rule="evenodd" d="M16.0001 13.1569C14.4292 13.1569 13.1557 14.4304 13.1557 16.0013C13.1557 17.5722 14.4292 18.8457 16.0001 18.8457C17.571 18.8457 18.8445 17.5722 18.8445 16.0013C18.8445 14.4304 17.571 13.1569 16.0001 13.1569ZM10.3113 16.0013C10.3113 12.8595 12.8582 10.3125 16.0001 10.3125C19.1419 10.3125 21.6889 12.8595 21.6889 16.0013C21.6889 19.1431 19.1419 21.6901 16.0001 21.6901C12.8582 21.6901 10.3113 19.1431 10.3113 16.0013Z" fill="white"/>
</svg>
