<svg width="32" height="32" viewBox="0 0 32 32" fill="none" xmlns="http://www.w3.org/2000/svg">
<path fill-rule="evenodd" clip-rule="evenodd" d="M12.3904 4.38922C12.6404 4.13917 12.9795 3.9987 13.3332 3.9987H18.6665C19.0201 3.9987 19.3593 4.13917 19.6093 4.38922C19.8594 4.63927 19.9998 4.97841 19.9998 5.33203V6.66536H11.9998V5.33203C11.9998 4.97841 12.1403 4.63927 12.3904 4.38922ZM9.33317 6.66536V5.33203C9.33317 4.27116 9.7546 3.25375 10.5047 2.5036C11.2549 1.75346 12.2723 1.33203 13.3332 1.33203H18.6665C19.7274 1.33203 20.7448 1.75346 21.4949 2.5036C22.2451 3.25375 22.6665 4.27116 22.6665 5.33203V6.66536H25.3332H27.9998C28.7362 6.66536 29.3332 7.26232 29.3332 7.9987C29.3332 8.73508 28.7362 9.33203 27.9998 9.33203H26.6665V26.6654C26.6665 27.7262 26.2451 28.7436 25.4949 29.4938C24.7448 30.2439 23.7274 30.6654 22.6665 30.6654H9.33317C8.2723 30.6654 7.25489 30.2439 6.50474 29.4938C5.7546 28.7436 5.33317 27.7262 5.33317 26.6654V9.33203H3.99984C3.26346 9.33203 2.6665 8.73508 2.6665 7.9987C2.6665 7.26232 3.26346 6.66536 3.99984 6.66536H6.6665H9.33317ZM7.99984 9.33203V26.6654C7.99984 27.019 8.14031 27.3581 8.39036 27.6082C8.64041 27.8582 8.97955 27.9987 9.33317 27.9987H22.6665C23.0201 27.9987 23.3593 27.8582 23.6093 27.6082C23.8594 27.3581 23.9998 27.019 23.9998 26.6654V9.33203H7.99984ZM18.6665 13.332C19.4029 13.332 19.9998 13.929 19.9998 14.6654V22.6654C19.9998 23.4017 19.4029 23.9987 18.6665 23.9987C17.9301 23.9987 17.3332 23.4017 17.3332 22.6654V14.6654C17.3332 13.929 17.9301 13.332 18.6665 13.332ZM14.6665 14.6654C14.6665 13.929 14.0696 13.332 13.3332 13.332C12.5968 13.332 11.9998 13.929 11.9998 14.6654V22.6654C11.9998 23.4017 12.5968 23.9987 13.3332 23.9987C14.0696 23.9987 14.6665 23.4017 14.6665 22.6654V14.6654Z" fill="#FF7506"/>
</svg>
