<svg width="24" height="24" viewBox="0 0 24 24" fill="none" xmlns="http://www.w3.org/2000/svg">
<path d="M0 12C0 5.37258 5.37258 0 12 0C18.6274 0 24 5.37258 24 12C24 18.6274 18.6274 24 12 24C5.37258 24 0 18.6274 0 12Z" fill="#0B80EC"/>
<path fill-rule="evenodd" clip-rule="evenodd" d="M5.625 12C5.625 11.3787 6.12868 10.875 6.75 10.875H17.25C17.8713 10.875 18.375 11.3787 18.375 12C18.375 12.6213 17.8713 13.125 17.25 13.125H6.75C6.12868 13.125 5.625 12.6213 5.625 12Z" fill="white"/>
<path d="M12 22C6.47715 22 2 17.5228 2 12H-2C-2 19.732 4.26801 26 12 26V22ZM22 12C22 17.5228 17.5228 22 12 22V26C19.732 26 26 19.732 26 12H22ZM12 2C17.5228 2 22 6.47715 22 12H26C26 4.26801 19.732 -2 12 -2V2ZM12 -2C4.26801 -2 -2 4.26801 -2 12H2C2 6.47715 6.47715 2 12 2V-2Z" fill="#0B80EC"/>
</svg>
