<svg width="15" height="8" viewBox="0 0 15 8" fill="none" xmlns="http://www.w3.org/2000/svg">
<path d="M14.1072 0.372418C13.8583 0.133886 13.5217 0 13.1709 0C12.82 0 12.4834 0.133886 12.2346 0.372418L7.4668 4.90609L2.76542 0.372418C2.51659 0.133886 2.17999 0 1.82913 0C1.47827 0 1.14167 0.133886 0.892841 0.372418C0.768363 0.491475 0.669562 0.633122 0.602138 0.789187C0.534713 0.945252 0.5 1.11265 0.5 1.28171C0.5 1.45078 0.534713 1.61818 0.602138 1.77424C0.669562 1.93031 0.768363 2.07195 0.892841 2.19101L6.52387 7.62117C6.64733 7.74121 6.79421 7.83649 6.95605 7.90151C7.11789 7.96652 7.29148 8 7.4668 8C7.64212 8 7.81571 7.96652 7.97754 7.90151C8.13938 7.83649 8.28627 7.74121 8.40973 7.62117L14.1072 2.19101C14.2316 2.07195 14.3304 1.93031 14.3979 1.77424C14.4653 1.61818 14.5 1.45078 14.5 1.28171C14.5 1.11265 14.4653 0.945252 14.3979 0.789187C14.3304 0.633122 14.2316 0.491475 14.1072 0.372418Z" fill="#FF7506"/>
</svg>
