<svg width="32" height="32" viewBox="0 0 32 32" fill="none" xmlns="http://www.w3.org/2000/svg">
<path fill-rule="evenodd" clip-rule="evenodd" d="M16 14C14.8954 14 14 14.8954 14 16C14 17.1046 14.8954 18 16 18C17.1046 18 18 17.1046 18 16C18 14.8954 17.1046 14 16 14ZM12 16C12 13.7909 13.7909 12 16 12C18.2091 12 20 13.7909 20 16C20 18.2091 18.2091 20 16 20C13.7909 20 12 18.2091 12 16Z" fill="white"/>
<path fill-rule="evenodd" clip-rule="evenodd" d="M16.0001 4.88824C15.7054 4.88824 15.4228 5.0053 15.2144 5.21368C15.006 5.42205 14.889 5.70466 14.889 5.99935V6.19267C14.8867 6.7669 14.7165 7.32793 14.3995 7.8067C14.0824 8.28547 13.6323 8.66107 13.1045 8.88728C13.0105 8.92755 12.9117 8.95457 12.8108 8.96775C12.3312 9.1357 11.8149 9.1771 11.3123 9.08597C10.7334 8.98101 10.1992 8.70504 9.77868 8.29364L9.76992 8.28507L9.7033 8.21836C9.6001 8.11505 9.47712 8.03266 9.34224 7.97674C9.20735 7.92083 9.06277 7.89205 8.91675 7.89205C8.77073 7.89205 8.62615 7.92083 8.49126 7.97674C8.35637 8.03266 8.23383 8.11461 8.13064 8.21792L8.12976 8.21879C8.02646 8.32199 7.9445 8.44453 7.88859 8.57942C7.83267 8.7143 7.80389 8.85889 7.80389 9.0049C7.80389 9.15092 7.83267 9.29551 7.88859 9.43039C7.9445 9.56528 8.02646 9.68782 8.12976 9.79102L8.20553 9.86679C8.61693 10.2874 8.89285 10.8216 8.99782 11.4005C9.10069 11.9678 9.03467 12.5526 8.80836 13.0824C8.60218 13.623 8.24117 14.0912 7.77013 14.4281C7.28957 14.7718 6.71673 14.963 6.12606 14.9768L6.10008 14.9771H6.00008C5.7054 14.9771 5.42278 15.0942 5.21441 15.3026C5.00603 15.5109 4.88897 15.7936 4.88897 16.0882C4.88897 16.3829 5.00603 16.6655 5.21441 16.8739C5.42278 17.0823 5.7054 17.1993 6.00008 17.1993H6.1934C6.76763 17.2016 7.32866 17.3718 7.80743 17.6889C8.28453 18.0048 8.65919 18.4529 8.88565 18.9784C9.12128 19.5152 9.19131 20.1102 9.0867 20.6871C8.98174 21.266 8.70577 21.8002 8.29437 22.2208L8.2858 22.2295L8.21909 22.2961C8.11578 22.3993 8.03339 22.5223 7.97747 22.6572C7.92156 22.7921 7.89278 22.9367 7.89278 23.0827C7.89278 23.2287 7.92156 23.3733 7.97747 23.5082C8.03339 23.6431 8.11535 23.7656 8.21865 23.8688L8.21953 23.8697C8.32272 23.973 8.44526 24.0549 8.58015 24.1108C8.71504 24.1668 8.85962 24.1955 9.00564 24.1955C9.15165 24.1955 9.29624 24.1668 9.43113 24.1108C9.56602 24.0549 9.68856 23.973 9.79175 23.8697L9.86752 23.7939C10.2881 23.3825 10.8223 23.1066 11.4012 23.0016C11.9686 22.8987 12.5534 22.9648 13.0832 23.1911C13.6238 23.3972 14.0919 23.7583 14.4288 24.2293C14.7725 24.7099 14.9637 25.2827 14.9776 25.8734L14.9779 25.8993V25.9993C14.9779 26.294 15.0949 26.5766 15.3033 26.785C15.5117 26.9934 15.7943 27.1105 16.089 27.1105C16.3837 27.1105 16.6663 26.9934 16.8746 26.785C17.083 26.5766 17.2001 26.294 17.2001 25.9993V25.8105L17.2001 25.806C17.2024 25.2318 17.3725 24.6708 17.6896 24.192C18.0056 23.7149 18.4537 23.3402 18.9792 23.1137C19.516 22.8781 20.111 22.8081 20.6879 22.9127C21.2667 23.0177 21.8009 23.2937 22.2215 23.7051L22.2302 23.7136L22.2969 23.7803C22.4001 23.8836 22.523 23.966 22.6579 24.022C22.7928 24.0779 22.9374 24.1067 23.0834 24.1067C23.2294 24.1067 23.374 24.0779 23.5089 24.022C23.6438 23.966 23.7663 23.8841 23.8695 23.7808L23.8704 23.7799C23.9737 23.6767 24.0557 23.5542 24.1116 23.4193C24.1675 23.2844 24.1963 23.1398 24.1963 22.9938C24.1963 22.8478 24.1675 22.7032 24.1116 22.5683C24.0557 22.4334 23.9737 22.3109 23.8704 22.2077L23.7946 22.1319C23.3832 21.7113 23.1073 21.1771 23.0023 20.5982C22.8977 20.0213 22.9678 19.4264 23.2033 18.8896C23.4298 18.3641 23.8045 17.916 24.2816 17.6C24.7604 17.2829 25.3214 17.1128 25.8957 17.1105L25.9001 17.1105L26.0001 17.1105C26.2948 17.1105 26.5774 16.9934 26.7858 16.785C26.9941 16.5766 27.1112 16.294 27.1112 15.9993C27.1112 15.7047 26.9941 15.4221 26.7858 15.2137C26.5774 15.0053 26.2948 14.8882 26.0001 14.8882H25.8112L25.8068 14.8882C25.2325 14.8859 24.6715 14.7158 24.1927 14.3987C23.714 14.0817 23.3384 13.6315 23.1121 13.1037C23.0719 13.0098 23.0449 12.9109 23.0317 12.81C22.8637 12.3304 22.8223 11.8142 22.9135 11.3116C23.0184 10.7327 23.2944 10.1985 23.7058 9.77794L23.7144 9.76919L23.7811 9.70257C23.8844 9.59937 23.9668 9.47639 24.0227 9.34151C24.0786 9.20662 24.1074 9.06203 24.1074 8.91602C24.1074 8.77 24.0786 8.62541 24.0227 8.49053C23.9668 8.35564 23.8848 8.2331 23.7815 8.1299L23.7806 8.12903C23.6774 8.02572 23.5549 7.94377 23.42 7.88785C23.2851 7.83194 23.1405 7.80316 22.9945 7.80316C22.8485 7.80316 22.7039 7.83194 22.569 7.88785C22.4342 7.94377 22.3116 8.02573 22.2084 8.12903L22.1326 8.2048C21.7121 8.6162 21.1779 8.89212 20.599 8.99708C20.022 9.10169 19.427 9.03166 18.8902 8.79603C18.3648 8.56957 17.9167 8.19491 17.6007 7.71781C17.2836 7.23904 17.1135 6.67801 17.1112 6.10378L17.1112 6.09935V5.99935C17.1112 5.70466 16.9941 5.42205 16.7858 5.21368C16.5774 5.0053 16.2948 4.88824 16.0001 4.88824ZM24.2223 19.3327L25.2388 19.7813C25.1806 19.9133 25.1632 20.0598 25.1889 20.2018C25.2144 20.3422 25.2809 20.4719 25.3799 20.5745L25.4409 20.6355C25.441 20.6356 25.4407 20.6353 25.4409 20.6355C25.7506 20.945 25.9967 21.3129 26.1644 21.7173C26.3322 22.122 26.4185 22.5557 26.4185 22.9938C26.4185 23.4318 26.3322 23.8656 26.1644 24.2703C25.9967 24.6749 25.7508 25.0425 25.4409 25.3521L24.6556 24.566L25.4418 25.3513C25.1322 25.6612 24.7645 25.907 24.3599 26.0748C23.9552 26.2425 23.5215 26.3289 23.0834 26.3289C22.6454 26.3289 22.2116 26.2425 21.8069 26.0748C21.4025 25.9071 21.035 25.6614 20.7255 25.3517C20.7254 25.3515 20.7257 25.3518 20.7255 25.3517L20.6642 25.2903C20.5615 25.1913 20.4318 25.1248 20.2914 25.0993C20.1494 25.0736 20.003 25.0909 19.8709 25.1492L19.86 25.154C19.7306 25.2095 19.6201 25.3016 19.5424 25.419C19.4649 25.536 19.4232 25.673 19.4223 25.8132V25.9993C19.4223 26.8834 19.0711 27.7313 18.446 28.3564C17.8209 28.9815 16.973 29.3327 16.089 29.3327C15.2049 29.3327 14.3571 28.9815 13.7319 28.3564C13.1068 27.7313 12.7556 26.8834 12.7556 25.9993V25.9153C12.7504 25.774 12.7037 25.6372 12.6213 25.5221C12.537 25.4042 12.4192 25.3144 12.2832 25.2644C12.2612 25.2563 12.2395 25.2475 12.2181 25.2381C12.0861 25.1798 11.9397 25.1624 11.7977 25.1882C11.6572 25.2137 11.5275 25.2802 11.4249 25.3793L11.364 25.4401C11.3638 25.4403 11.3641 25.44 11.364 25.4401C11.0545 25.7499 10.6866 25.996 10.2821 26.1637C9.87745 26.3314 9.44369 26.4178 9.00564 26.4178C8.56758 26.4178 8.13383 26.3314 7.72917 26.1637C7.32489 25.9961 6.95757 25.7505 6.64818 25.441C6.33825 25.1314 6.09239 24.7638 5.92465 24.3592C5.7569 23.9545 5.67056 23.5207 5.67056 23.0827C5.67056 22.6446 5.7569 22.2109 5.92465 21.8062C6.09239 21.4016 6.33825 21.0339 6.64818 20.7243L6.70909 20.6634C6.80818 20.5608 6.87467 20.4311 6.90014 20.2907C6.92588 20.1487 6.9085 20.0022 6.85023 19.8702L6.84542 19.8593C6.78994 19.7298 6.69787 19.6194 6.58043 19.5416C6.46346 19.4642 6.32646 19.4225 6.18619 19.4216H6.00008C5.11603 19.4216 4.26818 19.0704 3.64306 18.4453C3.01794 17.8201 2.66675 16.9723 2.66675 16.0882C2.66675 15.2042 3.01794 14.3563 3.64306 13.7312C4.26818 13.1061 5.11603 12.7549 6.00008 12.7549H6.08412C6.22545 12.7496 6.36221 12.703 6.47736 12.6206C6.59523 12.5363 6.68502 12.4185 6.73504 12.2825C6.74312 12.2605 6.75189 12.2388 6.76135 12.2174C6.81961 12.0854 6.83699 11.9389 6.81125 11.7969C6.78578 11.6565 6.71928 11.5268 6.62019 11.4241L6.55929 11.3632C6.24937 11.0537 6.0035 10.686 5.83576 10.2814C5.66801 9.87671 5.58167 9.44296 5.58167 9.0049C5.58167 8.56685 5.66801 8.1331 5.83576 7.72844C6.00343 7.32397 6.24914 6.95649 6.55885 6.64701C6.86834 6.33729 7.23581 6.09158 7.64028 5.92391C8.04494 5.75617 8.4787 5.66982 8.91675 5.66982C9.3548 5.66982 9.78856 5.75617 10.1932 5.92391C10.5979 6.09166 10.9655 6.33752 11.2751 6.64745L11.336 6.70835C11.4386 6.80744 11.5683 6.87394 11.7088 6.8994C11.8508 6.92515 11.9972 6.90777 12.1292 6.8495C12.2004 6.8181 12.2744 6.79434 12.3502 6.77849C12.4276 6.7259 12.4945 6.6585 12.5467 6.5797C12.6242 6.46273 12.6659 6.32573 12.6667 6.18546V5.99935C12.6667 5.11529 13.0179 4.26745 13.6431 3.64233C14.2682 3.01721 15.116 2.66602 16.0001 2.66602C16.8841 2.66602 17.732 3.01721 18.3571 3.64233C18.9822 4.26745 19.3334 5.11529 19.3334 5.99935V6.09657C19.3343 6.23684 19.376 6.37384 19.4535 6.49081C19.5312 6.60825 19.6417 6.70038 19.7711 6.75586L19.7821 6.76055C19.9141 6.81882 20.0605 6.83626 20.2025 6.81051C20.3429 6.78505 20.4726 6.71855 20.5753 6.61947L20.6362 6.55856C20.9458 6.24863 21.3134 6.00277 21.7181 5.83502C22.1227 5.66728 22.5565 5.58093 22.9945 5.58093C23.4326 5.58093 23.8663 5.66728 24.271 5.83502C24.6757 6.00277 25.0433 6.24864 25.3529 6.55856C25.6624 6.86795 25.9079 7.23527 26.0755 7.63955C26.2433 8.04421 26.3296 8.47796 26.3296 8.91602C26.3296 9.35407 26.2433 9.78782 26.0755 10.1925C25.9079 10.597 25.6621 10.9644 25.3524 11.2739C25.3523 11.2741 25.3526 11.2738 25.3524 11.2739L25.2911 11.3352C25.192 11.4379 25.1255 11.5676 25.1 11.708C25.0743 11.85 25.0917 11.9965 25.1499 12.1285C25.1813 12.1997 25.2051 12.2737 25.2209 12.3494C25.2735 12.4269 25.3409 12.4938 25.4197 12.546C25.5367 12.6234 25.6737 12.6651 25.814 12.666H26.0001C26.8841 12.666 27.732 13.0172 28.3571 13.6423C28.9822 14.2674 29.3334 15.1153 29.3334 15.9993C29.3334 16.8834 28.9822 17.7313 28.3571 18.3564C27.732 18.9815 26.8841 19.3327 26.0001 19.3327H25.9029C25.7626 19.3336 25.6256 19.3753 25.5086 19.4527C25.3912 19.5305 25.2991 19.6409 25.2436 19.7704L24.2223 19.3327Z" fill="white"/>
</svg>
