<svg width="34" height="34" viewBox="0 0 34 34" fill="none" xmlns="http://www.w3.org/2000/svg">
<path fill-rule="evenodd" clip-rule="evenodd" d="M17 20.334C20.6819 20.334 23.6667 17.3492 23.6667 13.6673C23.6667 9.98542 20.6819 7.00065 17 7.00065C13.3181 7.00065 10.3334 9.98542 10.3334 13.6673C10.3334 17.3492 13.3181 20.334 17 20.334ZM17 17.0007C18.841 17.0007 20.3334 15.5083 20.3334 13.6673C20.3334 11.8264 18.841 10.334 17 10.334C15.1591 10.334 13.6667 11.8264 13.6667 13.6673C13.6667 15.5083 15.1591 17.0007 17 17.0007Z" fill="#FF7506"/>
<path fill-rule="evenodd" clip-rule="evenodd" d="M26.8769 30.4268C30.995 27.3923 33.6667 22.5085 33.6667 17.0007C33.6667 7.79591 26.2048 0.333984 17 0.333984C7.79529 0.333984 0.333374 7.79591 0.333374 17.0007C0.333374 22.5085 3.00506 27.3923 7.12318 30.4268C7.19894 30.4826 7.27519 30.5378 7.35192 30.5924C8.1 31.1244 8.89388 31.5962 9.7265 32.0007C11.9244 33.0684 14.3923 33.6673 17 33.6673C19.6078 33.6673 22.0756 33.0684 24.2736 32.0007C24.3183 31.979 24.3628 31.9571 24.4073 31.935C25.2762 31.5031 26.1022 30.9977 26.8769 30.4268ZM25.7146 27.0923C28.5433 24.6473 30.3334 21.033 30.3334 17.0007C30.3334 9.63685 24.3638 3.66732 17 3.66732C9.63624 3.66732 3.66671 9.63685 3.66671 17.0007C3.66671 21.033 5.45673 24.6473 8.28551 27.0923C10.0011 24.0528 13.2609 22.0007 17 22.0007C20.7391 22.0007 23.9989 24.0528 25.7146 27.0923ZM22.9278 28.9471C21.8202 26.8012 19.5814 25.334 17 25.334C14.4186 25.334 12.1799 26.8012 11.0722 28.9471C12.8578 29.8348 14.8706 30.334 17 30.334C19.1294 30.334 21.1423 29.8348 22.9278 28.9471Z" fill="#FF7506"/>
</svg>
