<svg width="32" height="32" viewBox="0 0 32 32" fill="none" xmlns="http://www.w3.org/2000/svg">
<path fill-rule="evenodd" clip-rule="evenodd" d="M9.33337 23.9993C9.33337 23.263 9.93033 22.666 10.6667 22.666H28C28.7364 22.666 29.3334 23.263 29.3334 23.9993C29.3334 24.7357 28.7364 25.3327 28 25.3327H10.6667C9.93033 25.3327 9.33337 24.7357 9.33337 23.9993Z" fill="#FF7506"/>
<path fill-rule="evenodd" clip-rule="evenodd" d="M2.66663 23.9993C2.66663 23.263 3.26358 22.666 3.99996 22.666H4.01329C4.74967 22.666 5.34663 23.263 5.34663 23.9993C5.34663 24.7357 4.74967 25.3327 4.01329 25.3327H3.99996C3.26358 25.3327 2.66663 24.7357 2.66663 23.9993Z" fill="#FF7506"/>
<path fill-rule="evenodd" clip-rule="evenodd" d="M9.33337 15.9993C9.33337 15.263 9.93033 14.666 10.6667 14.666H28C28.7364 14.666 29.3334 15.263 29.3334 15.9993C29.3334 16.7357 28.7364 17.3327 28 17.3327H10.6667C9.93033 17.3327 9.33337 16.7357 9.33337 15.9993Z" fill="#FF7506"/>
<path fill-rule="evenodd" clip-rule="evenodd" d="M2.66663 15.9993C2.66663 15.263 3.26358 14.666 3.99996 14.666H4.01329C4.74967 14.666 5.34663 15.263 5.34663 15.9993C5.34663 16.7357 4.74967 17.3327 4.01329 17.3327H3.99996C3.26358 17.3327 2.66663 16.7357 2.66663 15.9993Z" fill="#FF7506"/>
<path fill-rule="evenodd" clip-rule="evenodd" d="M9.33337 7.99935C9.33337 7.26297 9.93033 6.66602 10.6667 6.66602H28C28.7364 6.66602 29.3334 7.26297 29.3334 7.99935C29.3334 8.73573 28.7364 9.33268 28 9.33268H10.6667C9.93033 9.33268 9.33337 8.73573 9.33337 7.99935Z" fill="#FF7506"/>
<path fill-rule="evenodd" clip-rule="evenodd" d="M2.66663 7.99935C2.66663 7.26297 3.26358 6.66602 3.99996 6.66602H4.01329C4.74967 6.66602 5.34663 7.26297 5.34663 7.99935C5.34663 8.73573 4.74967 9.33268 4.01329 9.33268H3.99996C3.26358 9.33268 2.66663 8.73573 2.66663 7.99935Z" fill="#FF7506"/>
</svg>
