<svg width="32" height="32" viewBox="0 0 32 32" fill="none" xmlns="http://www.w3.org/2000/svg">
<path fill-rule="evenodd" clip-rule="evenodd" d="M12.3905 4.39118C12.6405 4.14113 12.9797 4.00065 13.3333 4.00065H18.6666C19.0202 4.00065 19.3594 4.14113 19.6094 4.39118C19.8595 4.64122 20 4.98036 20 5.33398V6.66732H12V5.33398C12 4.98036 12.1404 4.64122 12.3905 4.39118ZM9.33329 6.66732V5.33398C9.33329 4.27312 9.75472 3.2557 10.5049 2.50556C11.255 1.75541 12.2724 1.33398 13.3333 1.33398H18.6666C19.7275 1.33398 20.7449 1.75541 21.4951 2.50556C22.2452 3.2557 22.6666 4.27312 22.6666 5.33398V6.66732H25.3333H28C28.7363 6.66732 29.3333 7.26427 29.3333 8.00065C29.3333 8.73703 28.7363 9.33398 28 9.33398H26.6666V26.6673C26.6666 27.7282 26.2452 28.7456 25.4951 29.4957C24.7449 30.2459 23.7275 30.6673 22.6666 30.6673H9.33329C8.27243 30.6673 7.25501 30.2459 6.50487 29.4957C5.75472 28.7456 5.33329 27.7282 5.33329 26.6673V9.33398H3.99996C3.26358 9.33398 2.66663 8.73703 2.66663 8.00065C2.66663 7.26427 3.26358 6.66732 3.99996 6.66732H6.66663H9.33329ZM7.99996 9.33398V26.6673C7.99996 27.0209 8.14043 27.3601 8.39048 27.6101C8.64053 27.8602 8.97967 28.0006 9.33329 28.0006H22.6666C23.0202 28.0006 23.3594 27.8602 23.6094 27.6101C23.8595 27.3601 24 27.0209 24 26.6673V9.33398H7.99996ZM18.6666 13.334C19.403 13.334 20 13.9309 20 14.6673V22.6673C20 23.4037 19.403 24.0007 18.6666 24.0007C17.9302 24.0007 17.3333 23.4037 17.3333 22.6673V14.6673C17.3333 13.9309 17.9302 13.334 18.6666 13.334ZM14.6666 14.6673C14.6666 13.9309 14.0697 13.334 13.3333 13.334C12.5969 13.334 12 13.9309 12 14.6673V22.6673C12 23.4037 12.5969 24.0007 13.3333 24.0007C14.0697 24.0007 14.6666 23.4037 14.6666 22.6673V14.6673Z" fill="#FF7506"/>
</svg>
