<svg width="28" height="30" viewBox="0 0 28 30" fill="none" xmlns="http://www.w3.org/2000/svg">
<path fill-rule="evenodd" clip-rule="evenodd" d="M10.3906 3.39118C10.6407 3.14113 10.9798 3.00065 11.3334 3.00065H16.6667C17.0204 3.00065 17.3595 3.14113 17.6096 3.39118C17.8596 3.64122 18.0001 3.98036 18.0001 4.33398V5.66732H10.0001V4.33398C10.0001 3.98036 10.1406 3.64122 10.3906 3.39118ZM7.33341 5.66732V4.33398C7.33341 3.27312 7.75484 2.2557 8.50499 1.50556C9.25513 0.755412 10.2725 0.333984 11.3334 0.333984H16.6667C17.7276 0.333984 18.745 0.755412 19.4952 1.50556C20.2453 2.2557 20.6667 3.27312 20.6667 4.33398V5.66732H23.3334H26.0001C26.7365 5.66732 27.3334 6.26427 27.3334 7.00065C27.3334 7.73703 26.7365 8.33398 26.0001 8.33398H24.6667V25.6673C24.6667 26.7282 24.2453 27.7456 23.4952 28.4957C22.745 29.2459 21.7276 29.6673 20.6667 29.6673H7.33341C6.27255 29.6673 5.25513 29.2459 4.50499 28.4957C3.75484 27.7456 3.33341 26.7282 3.33341 25.6673V8.33398H2.00008C1.2637 8.33398 0.666748 7.73703 0.666748 7.00065C0.666748 6.26427 1.2637 5.66732 2.00008 5.66732H4.66675H7.33341ZM6.00008 8.33398V25.6673C6.00008 26.0209 6.14056 26.3601 6.39061 26.6101C6.64065 26.8602 6.97979 27.0006 7.33341 27.0006H20.6667C21.0204 27.0006 21.3595 26.8602 21.6096 26.6101C21.8596 26.3601 22.0001 26.0209 22.0001 25.6673V8.33398H6.00008ZM16.6667 12.334C17.4031 12.334 18.0001 12.9309 18.0001 13.6673V21.6673C18.0001 22.4037 17.4031 23.0007 16.6667 23.0007C15.9304 23.0007 15.3334 22.4037 15.3334 21.6673V13.6673C15.3334 12.9309 15.9304 12.334 16.6667 12.334ZM12.6667 13.6673C12.6667 12.9309 12.0698 12.334 11.3334 12.334C10.597 12.334 10.0001 12.9309 10.0001 13.6673V21.6673C10.0001 22.4037 10.597 23.0007 11.3334 23.0007C12.0698 23.0007 12.6667 22.4037 12.6667 21.6673V13.6673Z" fill="#C9C4C0"/>
</svg>
