<svg width="32" height="32" viewBox="0 0 32 32" fill="none" xmlns="http://www.w3.org/2000/svg">
<path d="M4.01133 20.134L4.01761 20.1312L4.01133 20.134ZM4.01133 20.134L4.0032 20.1378M4.01133 20.134L4.0137 20.1254L4.01417 20.1236L4.01368 20.1254L4.0032 20.1378M4.01133 20.134L4.0032 20.1378M4.01133 20.134L4.0032 20.1378M14.6685 20.44H13.1685V19.7481C13.6783 19.9542 14.1789 20.185 14.6685 20.44ZM14.6685 20.44L15.3615 19.1097C15.1327 18.9905 14.9016 18.8762 14.6685 18.7667V20.44ZM6.67912 18.4887H6.70024C6.6932 18.4887 6.68616 18.4887 6.67912 18.4887ZM28.0135 25.3185L28.0166 25.3135L28.0135 25.3185ZM3.97633 25.3147L3.9592 25.3022L3.97633 25.3147ZM28.0014 19.9979L27.997 19.9927L28.0014 19.9979Z" fill="white" stroke="white" stroke-width="3"/>
</svg>
