<svg width="24" height="24" viewBox="0 0 24 24" fill="none" xmlns="http://www.w3.org/2000/svg">
<path d="M12 18.3636C12.178 18.3636 12.352 18.3103 12.5 18.2104C12.648 18.1105 12.7634 17.9686 12.8315 17.8024C12.8996 17.6363 12.9174 17.4535 12.8827 17.2772C12.848 17.1008 12.7623 16.9389 12.6364 16.8117C12.5105 16.6846 12.3502 16.598 12.1756 16.5629C12.001 16.5278 11.82 16.5458 11.6556 16.6147C11.4911 16.6835 11.3506 16.8 11.2517 16.9495C11.1528 17.099 11.1 17.2747 11.1 17.4545C11.1 17.6957 11.1948 17.9269 11.3636 18.0974C11.5324 18.2679 11.7613 18.3636 12 18.3636ZM16.5 18.3636C16.678 18.3636 16.852 18.3103 17 18.2104C17.148 18.1105 17.2634 17.9686 17.3315 17.8024C17.3996 17.6363 17.4174 17.4535 17.3827 17.2772C17.348 17.1008 17.2623 16.9389 17.1364 16.8117C17.0105 16.6846 16.8502 16.598 16.6756 16.5629C16.501 16.5278 16.32 16.5458 16.1556 16.6147C15.9911 16.6835 15.8506 16.8 15.7517 16.9495C15.6528 17.099 15.6 17.2747 15.6 17.4545C15.6 17.6957 15.6948 17.9269 15.8636 18.0974C16.0324 18.2679 16.2613 18.3636 16.5 18.3636ZM16.5 14.7273C16.678 14.7273 16.852 14.674 17 14.5741C17.148 14.4742 17.2634 14.3322 17.3315 14.1661C17.3996 14 17.4174 13.8172 17.3827 13.6408C17.348 13.4645 17.2623 13.3025 17.1364 13.1754C17.0105 13.0482 16.8502 12.9616 16.6756 12.9266C16.501 12.8915 16.32 12.9095 16.1556 12.9783C15.9911 13.0471 15.8506 13.1636 15.7517 13.3131C15.6528 13.4626 15.6 13.6384 15.6 13.8182C15.6 14.0593 15.6948 14.2905 15.8636 14.461C16.0324 14.6315 16.2613 14.7273 16.5 14.7273ZM12 14.7273C12.178 14.7273 12.352 14.674 12.5 14.5741C12.648 14.4742 12.7634 14.3322 12.8315 14.1661C12.8996 14 12.9174 13.8172 12.8827 13.6408C12.848 13.4645 12.7623 13.3025 12.6364 13.1754C12.5105 13.0482 12.3502 12.9616 12.1756 12.9266C12.001 12.8915 11.82 12.9095 11.6556 12.9783C11.4911 13.0471 11.3506 13.1636 11.2517 13.3131C11.1528 13.4626 11.1 13.6384 11.1 13.8182C11.1 14.0593 11.1948 14.2905 11.3636 14.461C11.5324 14.6315 11.7613 14.7273 12 14.7273ZM18.3 3.81818H17.4V2.90909C17.4 2.66799 17.3052 2.43675 17.1364 2.26627C16.9676 2.09578 16.7387 2 16.5 2C16.2613 2 16.0324 2.09578 15.8636 2.26627C15.6948 2.43675 15.6 2.66799 15.6 2.90909V3.81818H8.4V2.90909C8.4 2.66799 8.30518 2.43675 8.1364 2.26627C7.96761 2.09578 7.73869 2 7.5 2C7.2613 2 7.03239 2.09578 6.8636 2.26627C6.69482 2.43675 6.6 2.66799 6.6 2.90909V3.81818H5.7C4.98392 3.81818 4.29716 4.10552 3.79081 4.61698C3.28446 5.12844 3 5.82214 3 6.54545V19.2727C3 19.996 3.28446 20.6897 3.79081 21.2012C4.29716 21.7127 4.98392 22 5.7 22H18.3C19.0161 22 19.7028 21.7127 20.2092 21.2012C20.7155 20.6897 21 19.996 21 19.2727V6.54545C21 5.82214 20.7155 5.12844 20.2092 4.61698C19.7028 4.10552 19.0161 3.81818 18.3 3.81818ZM19.2 19.2727C19.2 19.5138 19.1052 19.7451 18.9364 19.9156C18.7676 20.086 18.5387 20.1818 18.3 20.1818H5.7C5.46131 20.1818 5.23239 20.086 5.0636 19.9156C4.89482 19.7451 4.8 19.5138 4.8 19.2727V11.0909H19.2V19.2727ZM19.2 9.27273H4.8V6.54545C4.8 6.30435 4.89482 6.07312 5.0636 5.90263C5.23239 5.73214 5.46131 5.63636 5.7 5.63636H6.6V6.54545C6.6 6.78656 6.69482 7.01779 6.8636 7.18828C7.03239 7.35877 7.2613 7.45455 7.5 7.45455C7.73869 7.45455 7.96761 7.35877 8.1364 7.18828C8.30518 7.01779 8.4 6.78656 8.4 6.54545V5.63636H15.6V6.54545C15.6 6.78656 15.6948 7.01779 15.8636 7.18828C16.0324 7.35877 16.2613 7.45455 16.5 7.45455C16.7387 7.45455 16.9676 7.35877 17.1364 7.18828C17.3052 7.01779 17.4 6.78656 17.4 6.54545V5.63636H18.3C18.5387 5.63636 18.7676 5.73214 18.9364 5.90263C19.1052 6.07312 19.2 6.30435 19.2 6.54545V9.27273ZM7.5 14.7273C7.678 14.7273 7.85201 14.674 8.00001 14.5741C8.14802 14.4742 8.26337 14.3322 8.33149 14.1661C8.39961 14 8.41743 13.8172 8.38271 13.6408C8.34798 13.4645 8.26226 13.3025 8.1364 13.1754C8.01053 13.0482 7.85016 12.9616 7.67558 12.9266C7.501 12.8915 7.32004 12.9095 7.15558 12.9783C6.99113 13.0471 6.85057 13.1636 6.75168 13.3131C6.65278 13.4626 6.6 13.6384 6.6 13.8182C6.6 14.0593 6.69482 14.2905 6.8636 14.461C7.03239 14.6315 7.2613 14.7273 7.5 14.7273ZM7.5 18.3636C7.678 18.3636 7.85201 18.3103 8.00001 18.2104C8.14802 18.1105 8.26337 17.9686 8.33149 17.8024C8.39961 17.6363 8.41743 17.4535 8.38271 17.2772C8.34798 17.1008 8.26226 16.9389 8.1364 16.8117C8.01053 16.6846 7.85016 16.598 7.67558 16.5629C7.501 16.5278 7.32004 16.5458 7.15558 16.6147C6.99113 16.6835 6.85057 16.8 6.75168 16.9495C6.65278 17.099 6.6 17.2747 6.6 17.4545C6.6 17.6957 6.69482 17.9269 6.8636 18.0974C7.03239 18.2679 7.2613 18.3636 7.5 18.3636Z" fill="#FF7506"/>
</svg>
