<svg width="32" height="32" viewBox="0 0 32 32" fill="none" xmlns="http://www.w3.org/2000/svg">
<path d="M9.33333 21.3327C9.86377 21.3327 10.3725 21.122 10.7475 20.7469C11.1226 20.3718 11.3333 19.8631 11.3333 19.3327C11.3398 19.2662 11.3398 19.1992 11.3333 19.1327L15.0533 15.4127H15.36H15.6667L17.8133 17.5593C17.8133 17.5593 17.8133 17.626 17.8133 17.666C17.8133 18.1964 18.024 18.7052 18.3991 19.0802C18.7742 19.4553 19.2829 19.666 19.8133 19.666C20.3438 19.666 20.8525 19.4553 21.2275 19.0802C21.6026 18.7052 21.8133 18.1964 21.8133 17.666V17.5593L26.6667 12.666C27.0622 12.666 27.4489 12.5487 27.7778 12.329C28.1067 12.1092 28.363 11.7968 28.5144 11.4314C28.6658 11.0659 28.7054 10.6638 28.6282 10.2758C28.5511 9.88787 28.3606 9.53151 28.0809 9.2518C27.8012 8.9721 27.4448 8.78162 27.0568 8.70444C26.6689 8.62727 26.2668 8.66688 25.9013 8.81826C25.5358 8.96963 25.2235 9.22598 25.0037 9.55488C24.784 9.88377 24.6667 10.2705 24.6667 10.666C24.6602 10.7325 24.6602 10.7995 24.6667 10.866L19.8533 15.6793H19.64L17.3333 13.3327C17.3333 12.8022 17.1226 12.2935 16.7475 11.9185C16.3725 11.5434 15.8638 11.3327 15.3333 11.3327C14.8029 11.3327 14.2942 11.5434 13.9191 11.9185C13.544 12.2935 13.3333 12.8022 13.3333 13.3327L9.33333 17.3327C8.8029 17.3327 8.29419 17.5434 7.91912 17.9185C7.54405 18.2935 7.33333 18.8022 7.33333 19.3327C7.33333 19.8631 7.54405 20.3718 7.91912 20.7469C8.29419 21.122 8.8029 21.3327 9.33333 21.3327ZM27.3333 26.666H4.66667V3.99935C4.66667 3.64573 4.52619 3.30659 4.27614 3.05654C4.02609 2.80649 3.68696 2.66602 3.33333 2.66602C2.97971 2.66602 2.64057 2.80649 2.39052 3.05654C2.14048 3.30659 2 3.64573 2 3.99935V27.9993C2 28.353 2.14048 28.6921 2.39052 28.9422C2.64057 29.1922 2.97971 29.3327 3.33333 29.3327H27.3333C27.687 29.3327 28.0261 29.1922 28.2761 28.9422C28.5262 28.6921 28.6667 28.353 28.6667 27.9993C28.6667 27.6457 28.5262 27.3066 28.2761 27.0565C28.0261 26.8065 27.687 26.666 27.3333 26.666Z" fill="white"/>
</svg>
