<svg width="32" height="32" viewBox="0 0 32 32" fill="none" xmlns="http://www.w3.org/2000/svg">
<path fill-rule="evenodd" clip-rule="evenodd" d="M2.50495 5.17157C3.25509 4.42143 4.27251 4 5.33337 4H14.6667C15.4031 4 16 4.59695 16 5.33333C16 6.06971 15.4031 6.66667 14.6667 6.66667H5.33337C4.97975 6.66667 4.64061 6.80714 4.39056 7.05719C4.14052 7.30724 4.00004 7.64638 4.00004 8V26.6667C4.00004 27.0203 4.14052 27.3594 4.39056 27.6095C4.64061 27.8595 4.97975 28 5.33337 28H24C24.3537 28 24.6928 27.8595 24.9428 27.6095C25.1929 27.3594 25.3334 27.0203 25.3334 26.6667V17.3333C25.3334 16.597 25.9303 16 26.6667 16C27.4031 16 28 16.597 28 17.3333V26.6667C28 27.7275 27.5786 28.7449 26.8285 29.4951C26.0783 30.2452 25.0609 30.6667 24 30.6667H5.33337C4.27251 30.6667 3.25509 30.2452 2.50495 29.4951C1.7548 28.7449 1.33337 27.7275 1.33337 26.6667V8C1.33337 6.93913 1.7548 5.92172 2.50495 5.17157Z" fill="#FF7506"/>
<path fill-rule="evenodd" clip-rule="evenodd" d="M26.6666 3.83854C26.2701 3.83854 25.8898 3.99606 25.6094 4.27644L13.2039 16.682L12.4991 19.5011L15.3183 18.7964L27.7238 6.39083C28.0042 6.11044 28.1617 5.73016 28.1617 5.33363C28.1617 4.93711 28.0042 4.55683 27.7238 4.27644C27.4434 3.99606 27.0631 3.83854 26.6666 3.83854ZM23.7238 2.39083C24.5043 1.61034 25.5628 1.17188 26.6666 1.17188C27.7704 1.17188 28.8289 1.61034 29.6094 2.39083C30.3899 3.17131 30.8284 4.22987 30.8284 5.33363C30.8284 6.4374 30.3899 7.49596 29.6094 8.27644L16.9428 20.9431C16.7719 21.114 16.5578 21.2352 16.3233 21.2938L10.99 22.6272C10.5356 22.7407 10.055 22.6076 9.7238 22.2764C9.39263 21.9453 9.2595 21.4646 9.37309 21.0103L10.7064 15.6769C10.765 15.4425 10.8863 15.2284 11.0571 15.0575L23.7238 2.39083Z" fill="#FF7506"/>
</svg>
