<svg width="28" height="22" viewBox="0 0 28 22" fill="none" xmlns="http://www.w3.org/2000/svg">
<path d="M27.2268 10.4673C24.5334 4.21398 19.4668 0.333984 14.0001 0.333984C8.53342 0.333984 3.46676 4.21398 0.773422 10.4673C0.700005 10.6355 0.662109 10.8171 0.662109 11.0007C0.662109 11.1842 0.700005 11.3658 0.773422 11.534C3.46676 17.7873 8.53342 21.6673 14.0001 21.6673C19.4668 21.6673 24.5334 17.7873 27.2268 11.534C27.3002 11.3658 27.3381 11.1842 27.3381 11.0007C27.3381 10.8171 27.3002 10.6355 27.2268 10.4673ZM14.0001 19.0007C9.77342 19.0007 5.77342 15.9473 3.46676 11.0007C5.77342 6.05398 9.77342 3.00065 14.0001 3.00065C18.2268 3.00065 22.2268 6.05398 24.5334 11.0007C22.2268 15.9473 18.2268 19.0007 14.0001 19.0007ZM14.0001 5.66732C12.9453 5.66732 11.9141 5.98011 11.037 6.56615C10.16 7.15218 9.4764 7.98513 9.07273 8.95967C8.66906 9.93421 8.56345 11.0066 8.76923 12.0411C8.97502 13.0757 9.48297 14.026 10.2289 14.7719C10.9747 15.5178 11.925 16.0257 12.9596 16.2315C13.9942 16.4373 15.0665 16.3317 16.0411 15.928C17.0156 15.5243 17.8486 14.8408 18.4346 13.9637C19.0206 13.0866 19.3334 12.0555 19.3334 11.0007C19.3334 9.58616 18.7715 8.22961 17.7713 7.22941C16.7711 6.22922 15.4146 5.66732 14.0001 5.66732ZM14.0001 13.6673C13.4727 13.6673 12.9571 13.5109 12.5186 13.2179C12.08 12.9249 11.7382 12.5084 11.5364 12.0211C11.3346 11.5339 11.2818 10.9977 11.3847 10.4804C11.4876 9.96313 11.7415 9.48797 12.1145 9.11503C12.4874 8.74209 12.9626 8.48812 13.4798 8.38522C13.9971 8.28233 14.5333 8.33514 15.0206 8.53697C15.5078 8.7388 15.9243 9.0806 16.2173 9.51913C16.5104 9.95766 16.6668 10.4732 16.6668 11.0007C16.6668 11.7079 16.3858 12.3862 15.8857 12.8863C15.3856 13.3864 14.7073 13.6673 14.0001 13.6673Z" fill="#FF7506"/>
</svg>
