<svg width="32" height="32" viewBox="0 0 32 32" fill="none" xmlns="http://www.w3.org/2000/svg">
<path d="M29.2266 15.4663C26.5333 9.21301 21.4666 5.33301 16 5.33301C10.5333 5.33301 5.46663 9.21301 2.7733 15.4663C2.69988 15.6346 2.66199 15.8161 2.66199 15.9997C2.66199 16.1832 2.69988 16.3648 2.7733 16.533C5.46663 22.7863 10.5333 26.6663 16 26.6663C21.4666 26.6663 26.5333 22.7863 29.2266 16.533C29.3001 16.3648 29.3379 16.1832 29.3379 15.9997C29.3379 15.8161 29.3001 15.6346 29.2266 15.4663ZM16 23.9997C11.7733 23.9997 7.7733 20.9463 5.46663 15.9997C7.7733 11.053 11.7733 7.99967 16 7.99967C20.2266 7.99967 24.2266 11.053 26.5333 15.9997C24.2266 20.9463 20.2266 23.9997 16 23.9997ZM16 10.6663C14.9451 10.6663 13.914 10.9791 13.0369 11.5652C12.1599 12.1512 11.4763 12.9842 11.0726 13.9587C10.6689 14.9332 10.5633 16.0056 10.7691 17.0402C10.9749 18.0747 11.4829 19.025 12.2287 19.7709C12.9746 20.5168 13.9249 21.0247 14.9595 21.2305C15.9941 21.4363 17.0664 21.3307 18.0409 20.927C19.0155 20.5234 19.8484 19.8398 20.4345 18.9627C21.0205 18.0857 21.3333 17.0545 21.3333 15.9997C21.3333 14.5852 20.7714 13.2286 19.7712 12.2284C18.771 11.2282 17.4145 10.6663 16 10.6663ZM16 18.6663C15.4725 18.6663 14.957 18.5099 14.5184 18.2169C14.0799 17.9239 13.7381 17.5074 13.5363 17.0202C13.3345 16.5329 13.2816 15.9967 13.3845 15.4794C13.4874 14.9622 13.7414 14.487 14.1143 14.1141C14.4873 13.7411 14.9624 13.4871 15.4797 13.3842C15.997 13.2814 16.5332 13.3342 17.0205 13.536C17.5077 13.7378 17.9242 14.0796 18.2172 14.5182C18.5102 14.9567 18.6666 15.4723 18.6666 15.9997C18.6666 16.7069 18.3857 17.3852 17.8856 17.8853C17.3855 18.3854 16.7072 18.6663 16 18.6663Z" fill="#FF7506"/>
</svg>
