<svg width="18" height="20" viewBox="0 0 18 20" fill="none" xmlns="http://www.w3.org/2000/svg">
<path d="M9 16.3636C9.178 16.3636 9.35201 16.3103 9.50001 16.2104C9.64802 16.1105 9.76337 15.9686 9.83149 15.8024C9.89961 15.6363 9.91743 15.4535 9.88271 15.2772C9.84798 15.1008 9.76226 14.9389 9.6364 14.8117C9.51053 14.6846 9.35016 14.598 9.17558 14.5629C9.001 14.5278 8.82004 14.5458 8.65558 14.6147C8.49113 14.6835 8.35057 14.8 8.25168 14.9495C8.15278 15.099 8.1 15.2747 8.1 15.4545C8.1 15.6957 8.19482 15.9269 8.3636 16.0974C8.53239 16.2679 8.7613 16.3636 9 16.3636ZM13.5 16.3636C13.678 16.3636 13.852 16.3103 14 16.2104C14.148 16.1105 14.2634 15.9686 14.3315 15.8024C14.3996 15.6363 14.4174 15.4535 14.3827 15.2772C14.348 15.1008 14.2623 14.9389 14.1364 14.8117C14.0105 14.6846 13.8502 14.598 13.6756 14.5629C13.501 14.5278 13.32 14.5458 13.1556 14.6147C12.9911 14.6835 12.8506 14.8 12.7517 14.9495C12.6528 15.099 12.6 15.2747 12.6 15.4545C12.6 15.6957 12.6948 15.9269 12.8636 16.0974C13.0324 16.2679 13.2613 16.3636 13.5 16.3636ZM13.5 12.7273C13.678 12.7273 13.852 12.674 14 12.5741C14.148 12.4742 14.2634 12.3322 14.3315 12.1661C14.3996 12 14.4174 11.8172 14.3827 11.6408C14.348 11.4645 14.2623 11.3025 14.1364 11.1754C14.0105 11.0482 13.8502 10.9616 13.6756 10.9266C13.501 10.8915 13.32 10.9095 13.1556 10.9783C12.9911 11.0471 12.8506 11.1636 12.7517 11.3131C12.6528 11.4626 12.6 11.6384 12.6 11.8182C12.6 12.0593 12.6948 12.2905 12.8636 12.461C13.0324 12.6315 13.2613 12.7273 13.5 12.7273ZM9 12.7273C9.178 12.7273 9.35201 12.674 9.50001 12.5741C9.64802 12.4742 9.76337 12.3322 9.83149 12.1661C9.89961 12 9.91743 11.8172 9.88271 11.6408C9.84798 11.4645 9.76226 11.3025 9.6364 11.1754C9.51053 11.0482 9.35016 10.9616 9.17558 10.9266C9.001 10.8915 8.82004 10.9095 8.65558 10.9783C8.49113 11.0471 8.35057 11.1636 8.25168 11.3131C8.15278 11.4626 8.1 11.6384 8.1 11.8182C8.1 12.0593 8.19482 12.2905 8.3636 12.461C8.53239 12.6315 8.7613 12.7273 9 12.7273ZM15.3 1.81818H14.4V0.909091C14.4 0.667985 14.3052 0.436754 14.1364 0.266267C13.9676 0.0957789 13.7387 0 13.5 0C13.2613 0 13.0324 0.0957789 12.8636 0.266267C12.6948 0.436754 12.6 0.667985 12.6 0.909091V1.81818H5.4V0.909091C5.4 0.667985 5.30518 0.436754 5.1364 0.266267C4.96761 0.0957789 4.73869 0 4.5 0C4.2613 0 4.03239 0.0957789 3.8636 0.266267C3.69482 0.436754 3.6 0.667985 3.6 0.909091V1.81818H2.7C1.98392 1.81818 1.29716 2.10552 0.790812 2.61698C0.284464 3.12844 0 3.82214 0 4.54545V17.2727C0 17.996 0.284464 18.6897 0.790812 19.2012C1.29716 19.7127 1.98392 20 2.7 20H15.3C16.0161 20 16.7028 19.7127 17.2092 19.2012C17.7155 18.6897 18 17.996 18 17.2727V4.54545C18 3.82214 17.7155 3.12844 17.2092 2.61698C16.7028 2.10552 16.0161 1.81818 15.3 1.81818ZM16.2 17.2727C16.2 17.5138 16.1052 17.7451 15.9364 17.9156C15.7676 18.086 15.5387 18.1818 15.3 18.1818H2.7C2.46131 18.1818 2.23239 18.086 2.0636 17.9156C1.89482 17.7451 1.8 17.5138 1.8 17.2727V9.09091H16.2V17.2727ZM16.2 7.27273H1.8V4.54545C1.8 4.30435 1.89482 4.07312 2.0636 3.90263C2.23239 3.73214 2.46131 3.63636 2.7 3.63636H3.6V4.54545C3.6 4.78656 3.69482 5.01779 3.8636 5.18828C4.03239 5.35877 4.2613 5.45455 4.5 5.45455C4.73869 5.45455 4.96761 5.35877 5.1364 5.18828C5.30518 5.01779 5.4 4.78656 5.4 4.54545V3.63636H12.6V4.54545C12.6 4.78656 12.6948 5.01779 12.8636 5.18828C13.0324 5.35877 13.2613 5.45455 13.5 5.45455C13.7387 5.45455 13.9676 5.35877 14.1364 5.18828C14.3052 5.01779 14.4 4.78656 14.4 4.54545V3.63636H15.3C15.5387 3.63636 15.7676 3.73214 15.9364 3.90263C16.1052 4.07312 16.2 4.30435 16.2 4.54545V7.27273ZM4.5 12.7273C4.678 12.7273 4.85201 12.674 5.00001 12.5741C5.14802 12.4742 5.26337 12.3322 5.33149 12.1661C5.39961 12 5.41743 11.8172 5.38271 11.6408C5.34798 11.4645 5.26226 11.3025 5.1364 11.1754C5.01053 11.0482 4.85016 10.9616 4.67558 10.9266C4.501 10.8915 4.32004 10.9095 4.15558 10.9783C3.99113 11.0471 3.85057 11.1636 3.75168 11.3131C3.65278 11.4626 3.6 11.6384 3.6 11.8182C3.6 12.0593 3.69482 12.2905 3.8636 12.461C4.03239 12.6315 4.2613 12.7273 4.5 12.7273ZM4.5 16.3636C4.678 16.3636 4.85201 16.3103 5.00001 16.2104C5.14802 16.1105 5.26337 15.9686 5.33149 15.8024C5.39961 15.6363 5.41743 15.4535 5.38271 15.2772C5.34798 15.1008 5.26226 14.9389 5.1364 14.8117C5.01053 14.6846 4.85016 14.598 4.67558 14.5629C4.501 14.5278 4.32004 14.5458 4.15558 14.6147C3.99113 14.6835 3.85057 14.8 3.75168 14.9495C3.65278 15.099 3.6 15.2747 3.6 15.4545C3.6 15.6957 3.69482 15.9269 3.8636 16.0974C4.03239 16.2679 4.2613 16.3636 4.5 16.3636Z" fill="#FF7506"/>
</svg>
