<svg width="22" height="28" viewBox="0 0 22 28" fill="none" xmlns="http://www.w3.org/2000/svg">
<path d="M12.3335 16.666H7.00016C6.64654 16.666 6.3074 16.8065 6.05735 17.0565C5.80731 17.3066 5.66683 17.6457 5.66683 17.9993C5.66683 18.353 5.80731 18.6921 6.05735 18.9422C6.3074 19.1922 6.64654 19.3327 7.00016 19.3327H12.3335C12.6871 19.3327 13.0263 19.1922 13.2763 18.9422C13.5264 18.6921 13.6668 18.353 13.6668 17.9993C13.6668 17.6457 13.5264 17.3066 13.2763 17.0565C13.0263 16.8065 12.6871 16.666 12.3335 16.666ZM17.6668 3.33268H16.0935C15.8184 2.55462 15.3094 1.88068 14.6362 1.40327C13.9631 0.925854 13.1588 0.668335 12.3335 0.666016H9.66683C8.84157 0.668335 8.03723 0.925854 7.36408 1.40327C6.69092 1.88068 6.18191 2.55462 5.90683 3.33268H4.3335C3.27263 3.33268 2.25521 3.75411 1.50507 4.50426C0.754924 5.2544 0.333496 6.27182 0.333496 7.33268V23.3327C0.333496 24.3935 0.754924 25.411 1.50507 26.1611C2.25521 26.9113 3.27263 27.3327 4.3335 27.3327H17.6668C18.7277 27.3327 19.7451 26.9113 20.4953 26.1611C21.2454 25.411 21.6668 24.3935 21.6668 23.3327V7.33268C21.6668 6.27182 21.2454 5.2544 20.4953 4.50426C19.7451 3.75411 18.7277 3.33268 17.6668 3.33268ZM8.3335 4.66602C8.3335 4.31239 8.47397 3.97326 8.72402 3.72321C8.97407 3.47316 9.31321 3.33268 9.66683 3.33268H12.3335C12.6871 3.33268 13.0263 3.47316 13.2763 3.72321C13.5264 3.97326 13.6668 4.31239 13.6668 4.66602V5.99935H8.3335V4.66602ZM19.0002 23.3327C19.0002 23.6863 18.8597 24.0254 18.6096 24.2755C18.3596 24.5255 18.0205 24.666 17.6668 24.666H4.3335C3.97987 24.666 3.64074 24.5255 3.39069 24.2755C3.14064 24.0254 3.00016 23.6863 3.00016 23.3327V7.33268C3.00016 6.97906 3.14064 6.63992 3.39069 6.38987C3.64074 6.13983 3.97987 5.99935 4.3335 5.99935H5.66683V7.33268C5.66683 7.6863 5.80731 8.02544 6.05735 8.27549C6.3074 8.52554 6.64654 8.66602 7.00016 8.66602H15.0002C15.3538 8.66602 15.6929 8.52554 15.943 8.27549C16.193 8.02544 16.3335 7.6863 16.3335 7.33268V5.99935H17.6668C18.0205 5.99935 18.3596 6.13983 18.6096 6.38987C18.8597 6.63992 19.0002 6.97906 19.0002 7.33268V23.3327ZM15.0002 11.3327H7.00016C6.64654 11.3327 6.3074 11.4732 6.05735 11.7232C5.80731 11.9733 5.66683 12.3124 5.66683 12.666C5.66683 13.0196 5.80731 13.3588 6.05735 13.6088C6.3074 13.8589 6.64654 13.9993 7.00016 13.9993H15.0002C15.3538 13.9993 15.6929 13.8589 15.943 13.6088C16.193 13.3588 16.3335 13.0196 16.3335 12.666C16.3335 12.3124 16.193 11.9733 15.943 11.7232C15.6929 11.4732 15.3538 11.3327 15.0002 11.3327Z" fill="#FF7506"/>
</svg>
