<svg width="32" height="32" viewBox="0 0 32 32" fill="none" xmlns="http://www.w3.org/2000/svg">
<g clip-path="url(#clip0)">
<path fill-rule="evenodd" clip-rule="evenodd" d="M21.3333 18.6663C21.3333 17.93 21.9303 17.333 22.6667 17.333H30.6667C31.4031 17.333 32 17.93 32 18.6663V26.6663C32 27.4027 31.4031 27.9997 30.6667 27.9997C29.9303 27.9997 29.3333 27.4027 29.3333 26.6663V19.9997H22.6667C21.9303 19.9997 21.3333 19.4027 21.3333 18.6663Z" fill="#FF7506"/>
<path fill-rule="evenodd" clip-rule="evenodd" d="M1.33333 4C2.06971 4 2.66667 4.59695 2.66667 5.33333V12H9.33333C10.0697 12 10.6667 12.597 10.6667 13.3333C10.6667 14.0697 10.0697 14.6667 9.33333 14.6667H1.33333C0.596954 14.6667 0 14.0697 0 13.3333V5.33333C0 4.59695 0.596954 4 1.33333 4Z" fill="#FF7506"/>
<path fill-rule="evenodd" clip-rule="evenodd" d="M12.3026 3.19497C14.4662 2.56914 16.7531 2.5016 18.9499 2.99865C21.1466 3.4957 23.1817 4.54113 24.8652 6.03741C26.5486 7.53368 27.8256 9.43202 28.577 11.5553C28.8226 12.2495 28.459 13.0114 27.7648 13.2571C27.0706 13.5027 26.3087 13.1391 26.063 12.4449C25.462 10.7463 24.4404 9.22759 23.0936 8.03058C21.7468 6.83356 20.1188 5.99721 18.3614 5.59957C16.604 5.20193 14.7745 5.25597 13.0436 5.75663C11.3127 6.25729 9.73682 7.18826 8.46305 8.46267C8.4532 8.47253 8.44319 8.48223 8.43304 8.49177L2.24637 14.3051C1.70973 14.8094 0.865922 14.7831 0.361667 14.2465C-0.142589 13.7098 -0.116337 12.866 0.420302 12.3618L6.59214 6.56237C8.18169 4.97713 10.1459 3.81881 12.3026 3.19497ZM31.6383 17.7537C32.1426 18.2904 32.1163 19.1342 31.5797 19.6384L25.4079 25.4379C23.8183 27.0231 21.8541 28.1814 19.6974 28.8052C17.5338 29.4311 15.2469 29.4986 13.0501 29.0016C10.8534 28.5045 8.81831 27.4591 7.13485 25.9628C5.4514 24.4665 4.17441 22.5682 3.42305 20.4449C3.1774 19.7507 3.54101 18.9888 4.23521 18.7431C4.92941 18.4975 5.69131 18.8611 5.93696 19.5553C6.53805 21.2539 7.55963 22.7726 8.9064 23.9696C10.2532 25.1666 11.8812 26.003 13.6386 26.4006C15.396 26.7983 17.2256 26.7442 18.9564 26.2436C20.6873 25.7429 22.2632 24.8119 23.537 23.5375C23.5429 23.5316 23.5489 23.5257 23.5549 23.5199C23.5589 23.5161 23.5629 23.5122 23.567 23.5084L29.7536 17.6951C30.2903 17.1908 31.1341 17.2171 31.6383 17.7537Z" fill="#FF7506"/>
</g>
<defs>
<clipPath id="clip0">
<rect width="32" height="32" fill="white"/>
</clipPath>
</defs>
</svg>
