<svg width="32" height="32" viewBox="0 0 32 32" fill="none" xmlns="http://www.w3.org/2000/svg">
<path fill-rule="evenodd" clip-rule="evenodd" d="M14.6667 5.33366C9.512 5.33366 5.33332 9.51233 5.33332 14.667C5.33332 19.8217 9.512 24.0003 14.6667 24.0003C19.8213 24.0003 24 19.8217 24 14.667C24 9.51233 19.8213 5.33366 14.6667 5.33366ZM2.66666 14.667C2.66666 8.03958 8.03924 2.66699 14.6667 2.66699C21.2941 2.66699 26.6667 8.03958 26.6667 14.667C26.6667 21.2944 21.2941 26.667 14.6667 26.667C8.03924 26.667 2.66666 21.2944 2.66666 14.667Z" fill="#FF7506"/>
<path fill-rule="evenodd" clip-rule="evenodd" d="M21.2572 21.2567C21.7779 20.736 22.6221 20.736 23.1428 21.2567L28.9428 27.0567C29.4635 27.5774 29.4635 28.4217 28.9428 28.9424C28.4221 29.4631 27.5779 29.4631 27.0572 28.9424L21.2572 23.1424C20.7365 22.6217 20.7365 21.7774 21.2572 21.2567Z" fill="#FF7506"/>
</svg>
