<svg width="24" height="24" viewBox="0 0 24 24" fill="none" xmlns="http://www.w3.org/2000/svg">
<path fill-rule="evenodd" clip-rule="evenodd" d="M11 4C7.13401 4 4 7.13401 4 11C4 14.866 7.13401 18 11 18C14.866 18 18 14.866 18 11C18 7.13401 14.866 4 11 4ZM2 11C2 6.02944 6.02944 2 11 2C15.9706 2 20 6.02944 20 11C20 15.9706 15.9706 20 11 20C6.02944 20 2 15.9706 2 11Z" fill="#C5C5C5"/>
<path fill-rule="evenodd" clip-rule="evenodd" d="M15.9428 15.9413C16.3333 15.5508 16.9665 15.5508 17.357 15.9413L21.707 20.2913C22.0975 20.6819 22.0975 21.315 21.707 21.7055C21.3165 22.0961 20.6833 22.0961 20.2928 21.7055L15.9428 17.3555C15.5523 16.965 15.5523 16.3319 15.9428 15.9413Z" fill="#C5C5C5"/>
</svg>
