<svg width="28" height="30" viewBox="0 0 28 30" fill="none" xmlns="http://www.w3.org/2000/svg">
<path fill-rule="evenodd" clip-rule="evenodd" d="M10.3905 3.3902C10.6406 3.14015 10.9797 2.99967 11.3333 2.99967H16.6667C17.0203 2.99967 17.3594 3.14015 17.6095 3.3902C17.8595 3.64025 18 3.97939 18 4.33301V5.66634H9.99999V4.33301C9.99999 3.97939 10.1405 3.64025 10.3905 3.3902ZM7.33332 5.66634V4.33301C7.33332 3.27214 7.75475 2.25473 8.5049 1.50458C9.25504 0.754435 10.2725 0.333008 11.3333 0.333008H16.6667C17.7275 0.333008 18.7449 0.754435 19.4951 1.50458C20.2452 2.25473 20.6667 3.27214 20.6667 4.33301V5.66634H23.3333H26C26.7364 5.66634 27.3333 6.26329 27.3333 6.99967C27.3333 7.73605 26.7364 8.33301 26 8.33301H24.6667V25.6663C24.6667 26.7272 24.2452 27.7446 23.4951 28.4948C22.7449 29.2449 21.7275 29.6663 20.6667 29.6663H7.33332C6.27246 29.6663 5.25504 29.2449 4.5049 28.4948C3.75475 27.7446 3.33332 26.7272 3.33332 25.6663V8.33301H1.99999C1.26361 8.33301 0.666656 7.73605 0.666656 6.99967C0.666656 6.26329 1.26361 5.66634 1.99999 5.66634H4.66666H7.33332ZM5.99999 8.33301V25.6663C5.99999 26.02 6.14047 26.3591 6.39051 26.6091C6.64056 26.8592 6.9797 26.9997 7.33332 26.9997H20.6667C21.0203 26.9997 21.3594 26.8592 21.6095 26.6091C21.8595 26.3591 22 26.02 22 25.6663V8.33301H5.99999ZM16.6667 12.333C17.403 12.333 18 12.93 18 13.6663V21.6663C18 22.4027 17.403 22.9997 16.6667 22.9997C15.9303 22.9997 15.3333 22.4027 15.3333 21.6663V13.6663C15.3333 12.93 15.9303 12.333 16.6667 12.333ZM12.6667 13.6663C12.6667 12.93 12.0697 12.333 11.3333 12.333C10.5969 12.333 9.99999 12.93 9.99999 13.6663V21.6663C9.99999 22.4027 10.5969 22.9997 11.3333 22.9997C12.0697 22.9997 12.6667 22.4027 12.6667 21.6663V13.6663Z" fill="#FF7506"/>
</svg>
