<svg width="32" height="32" viewBox="0 0 32 32" fill="none" xmlns="http://www.w3.org/2000/svg">
<path d="M16.3999 16.2927C17.1114 15.6769 17.682 14.9152 18.0731 14.0594C18.4642 13.2036 18.6666 12.2736 18.6666 11.3327C18.6666 9.56457 17.9642 7.86888 16.714 6.61864C15.4637 5.36839 13.768 4.66602 11.9999 4.66602C10.2318 4.66602 8.53612 5.36839 7.28587 6.61864C6.03563 7.86888 5.33325 9.56457 5.33325 11.3327C5.33324 12.2736 5.53565 13.2036 5.92675 14.0594C6.31785 14.9152 6.88848 15.6769 7.59992 16.2927C5.73344 17.1379 4.14987 18.5027 3.03856 20.2241C1.92725 21.9454 1.33521 23.9504 1.33325 25.9993C1.33325 26.353 1.47373 26.6921 1.72378 26.9422C1.97382 27.1922 2.31296 27.3327 2.66659 27.3327C3.02021 27.3327 3.35935 27.1922 3.60939 26.9422C3.85944 26.6921 3.99992 26.353 3.99992 25.9993C3.99992 23.8776 4.84277 21.8428 6.34306 20.3425C7.84336 18.8422 9.87819 17.9993 11.9999 17.9993C14.1217 17.9993 16.1565 18.8422 17.6568 20.3425C19.1571 21.8428 19.9999 23.8776 19.9999 25.9993C19.9999 26.353 20.1404 26.6921 20.3904 26.9422C20.6405 27.1922 20.9796 27.3327 21.3333 27.3327C21.6869 27.3327 22.026 27.1922 22.2761 26.9422C22.5261 26.6921 22.6666 26.353 22.6666 25.9993C22.6646 23.9504 22.0726 21.9454 20.9613 20.2241C19.85 18.5027 18.2664 17.1379 16.3999 16.2927ZM11.9999 15.3327C11.2088 15.3327 10.4354 15.0981 9.77764 14.6586C9.11984 14.219 8.60715 13.5943 8.3044 12.8634C8.00165 12.1325 7.92244 11.3282 8.07678 10.5523C8.23112 9.7764 8.61208 9.06367 9.17149 8.50426C9.7309 7.94485 10.4436 7.56388 11.2196 7.40954C11.9955 7.2552 12.7997 7.33441 13.5307 7.63716C14.2616 7.93992 14.8863 8.45261 15.3258 9.1104C15.7653 9.7682 15.9999 10.5416 15.9999 11.3327C15.9999 12.3935 15.5785 13.411 14.8283 14.1611C14.0782 14.9113 13.0608 15.3327 11.9999 15.3327ZM24.9866 15.7593C25.8399 14.7985 26.3973 13.6114 26.5917 12.3411C26.786 11.0708 26.6092 9.77145 26.0823 8.59935C25.5554 7.42725 24.701 6.43241 23.6219 5.73458C22.5428 5.03675 21.285 4.66567 19.9999 4.66602C19.6463 4.66602 19.3072 4.80649 19.0571 5.05654C18.8071 5.30659 18.6666 5.64573 18.6666 5.99935C18.6666 6.35297 18.8071 6.69211 19.0571 6.94216C19.3072 7.19221 19.6463 7.33268 19.9999 7.33268C21.0608 7.33268 22.0782 7.75411 22.8283 8.50426C23.5785 9.2544 23.9999 10.2718 23.9999 11.3327C23.998 12.033 23.8123 12.7206 23.4613 13.3266C23.1104 13.9326 22.6064 14.4359 21.9999 14.786C21.8022 14.9 21.6371 15.0629 21.5204 15.259C21.4037 15.4551 21.3392 15.6779 21.3333 15.906C21.3277 16.1324 21.3798 16.3564 21.4848 16.557C21.5898 16.7576 21.7441 16.9282 21.9333 17.0527L22.4533 17.3993L22.6266 17.4927C24.2338 18.255 25.5897 19.4607 26.5346 20.9678C27.4794 22.4749 27.974 24.2206 27.9599 25.9993C27.9599 26.353 28.1004 26.6921 28.3504 26.9422C28.6005 27.1922 28.9396 27.3327 29.2933 27.3327C29.6469 27.3327 29.986 27.1922 30.2361 26.9422C30.4861 26.6921 30.6266 26.353 30.6266 25.9993C30.6375 23.9533 30.125 21.9384 29.1379 20.1461C28.1507 18.3538 26.7217 16.8438 24.9866 15.7593Z" fill="white"/>
</svg>
